<?xml version="1.0"?>
<svg width="146.0834276676178" height="148.24200880527496" xmlns="http://www.w3.org/2000/svg" xmlns:svg="http://www.w3.org/2000/svg">
 <g class="layer">
  <title>Layer 1</title>
  <g id="svg_1">
   <path d="m47.159,89.494c4.142,0 7.5,3.358 7.5,7.5c-0.1,2.484 -1.183,4.796 -3.307,6.219c-0.894,0.376 -1.788,0.752 -2.682,1.129c-0.004,0 -0.007,0 -0.011,0.001l0,15.378l37.044,0c1.075,-3.695 3.591,-5.622 7.349,-6c4.142,0 7.5,3.357 7.5,7.5c0,4.142 -3.358,7.5 -7.5,7.5c-2.484,-0.101 -4.796,-1.183 -6.219,-3.307c-0.376,-0.894 -0.752,-1.788 -1.129,-2.682c0,-0.004 0,-0.008 -0.001,-0.011l-37.044,0l0,11.951l7.135,0c1.59,0 2.44,1.872 1.393,3.069l-8.634,9.869c-0.484,0.38 -0.266,0.288 -0.587,0.398c-0.265,0.264 -0.049,0.083 -0.812,0.234c-0.24,-0.049 -0.48,-0.099 -0.72,-0.148c-0.003,-0.003 -0.006,-0.006 -0.009,-0.01l-0.015,0l-0.642,-0.474c-1.796,-2.053 -3.593,-4.105 -5.39,-6.158c-1.082,-1.237 -2.164,-2.474 -3.247,-3.711c-1.047,-1.196 -0.197,-3.069 1.392,-3.069l7.136,0l0,-11.951l-28.173,0l0,7.135c0.001,1.59 -1.872,2.439 -3.069,1.392c-1.236,-1.082 -2.473,-2.164 -3.71,-3.247c-2.053,-1.796 -4.106,-3.593 -6.159,-5.39l-0.473,-0.642l-0.001,-0.014c-0.003,-0.003 -0.006,-0.007 -0.01,-0.01c-0.049,-0.24 -0.098,-0.48 -0.147,-0.72c0.151,-0.763 -0.03,-0.547 0.233,-0.812c0.11,-0.321 0.018,-0.103 0.399,-0.587l9.869,-8.633c0.764,-0.492 0.288,-0.282 1.496,-0.439c1,0.269 1.428,0.856 1.572,1.831l0,7.136l28.173,0l0,-15.378c-3.695,-1.075 -5.621,-3.591 -6,-7.349c0,-4.142 3.358,-7.5 7.5,-7.5z" fill="#ffffff" id="svg_2"/>
   <path d="m68.046,11.59c0.763,0.151 0.547,-0.03 0.812,0.234c0.321,0.11 0.103,0.018 0.587,0.398l8.633,9.869c1.047,1.196 0.198,3.069 -1.392,3.069l-7.001,0c-0.76,12.447 -0.702,25.975 -7.113,37.094l7.885,7.886c0.992,-4.982 3.439,-9.427 6.755,-13.223c6.116,-5.145 14.25,-6.061 21.94,-6.523c6.082,-0.366 7.139,-1.003 13.229,-0.986c1.097,-3.67 3.977,-5.434 7.639,-5.803c4.459,0 8.074,3.615 8.074,8.074c0,4.46 -3.615,8.075 -8.074,8.075l-1.627,-0.164c-3.92,-1.274 -4.86,-2.819 -6.22,-6.482c-10.072,0.437 -19.524,-0.399 -28.858,4.194c-1.859,0.915 -2.324,1.354 -3.712,2.44c-3.575,3.703 -5.082,8.486 -6.166,13.377l11.303,11.303l21.527,0l0,-7.136c0.075,-1.174 0.615,-1.397 1.572,-1.831c1.209,0.157 0.733,-0.053 1.497,0.439l9.869,8.634c0.38,0.483 0.288,0.265 0.398,0.586c0.264,0.266 0.083,0.05 0.234,0.813c-0.049,0.24 -0.098,0.479 -0.148,0.719c-0.003,0.004 -0.006,0.007 -0.01,0.01l0,0.014l-0.474,0.643c-2.053,1.796 -4.105,3.593 -6.158,5.389c-1.237,1.083 -2.474,2.165 -3.711,3.248c-1.196,1.047 -3.069,0.197 -3.069,-1.393l0,-7.135l-18.527,0l34.377,34.377l5.37,-5.37c0.73,-0.542 0.27,-0.301 1.465,-0.537c1.015,0.201 1.481,0.759 1.69,1.722c0.109,1.64 0.218,3.28 0.328,4.92c0.181,2.722 0.362,5.444 0.543,8.166l-0.119,0.789l-0.01,0.01c0,0.005 0,0.01 0,0.014c-0.134,0.205 -0.269,0.409 -0.404,0.614c-0.647,0.432 -0.366,0.408 -0.74,0.409c-0.304,0.149 -0.085,0.06 -0.696,0.133l-13.084,-0.873c-1.586,-0.106 -2.309,-2.031 -1.185,-3.155l4.721,-4.721l-36.499,-36.498l-11.566,0c-0.143,4.398 -0.089,2.515 -0.171,5.647l6.574,0c1.59,0 2.439,1.872 1.392,3.069c-1.082,1.237 -2.164,2.474 -3.247,3.71c-1.796,2.053 -3.593,4.106 -5.389,6.159l-0.643,0.474l-0.014,0c-0.003,0.003 -0.007,0.007 -0.01,0.01c-0.24,0.049 -0.48,0.098 -0.719,0.148c-0.764,-0.152 -0.548,0.029 -0.813,-0.234c-0.321,-0.11 -0.103,-0.018 -0.586,-0.398l-8.634,-9.869c-1.047,-1.197 -0.197,-3.069 1.392,-3.069l7.001,0c0.128,-3.296 0.052,-1.414 0.234,-5.647l-28.769,0c-1.075,3.694 -3.591,5.621 -7.349,6c-4.142,0 -7.5,-3.358 -7.5,-7.5c0.101,-2.485 1.183,-4.797 3.307,-6.219c0.894,-0.377 1.788,-0.753 2.682,-1.129c0.003,0 0.007,-0.001 0.011,-0.001l0,-6.049c-4.957,0.171 -1.275,0.064 -11.05,0.095c-1.097,3.67 -3.977,5.434 -7.639,5.803c-4.459,0 -8.074,-3.615 -8.074,-8.075c0,-4.459 3.615,-8.074 8.074,-8.074l1.627,0.164c3.92,1.274 4.86,2.819 6.22,6.482c6.257,-0.142 2.643,-0.088 10.842,-0.102l0,-43.657l-7.135,0c-1.59,0 -2.44,-1.873 -1.393,-3.069c1.083,-1.237 2.165,-2.474 3.248,-3.711c1.796,-2.053 3.593,-4.105 5.389,-6.158l0.643,-0.474l0.014,0c0.003,-0.004 0.006,-0.007 0.01,-0.01c0.24,-0.05 0.479,-0.099 0.719,-0.148c0.763,0.151 0.547,-0.03 0.813,0.234c0.32,0.11 0.103,0.018 0.586,0.398l8.634,9.869c1.047,1.196 0.197,3.069 -1.392,3.069l-7.136,0l0,43.6c6.857,-0.004 13.73,-0.623 20.056,-3.393c1.859,-0.915 2.324,-1.354 3.711,-2.44l0.735,-0.82l-3.297,-3.297c-1.142,1.409 -3.044,1.634 -4.715,1.802c-4.143,0 -7.5,-3.357 -7.5,-7.5c0,-4.142 3.357,-7.5 7.5,-7.5c4.142,0 7.5,3.358 7.5,7.5c-0.219,2.164 0.044,1.045 -0.916,3.325l3.118,3.117c0.365,-0.626 0.811,-1.212 1.095,-1.879c4.314,-10.123 4.702,-21.671 5.022,-32.515l-6.574,0c-1.59,0 -2.439,-1.873 -1.392,-3.069c1.082,-1.237 2.165,-2.474 3.247,-3.711c1.796,-2.053 3.593,-4.105 5.39,-6.158l0.642,-0.474l0.014,0c0.003,-0.004 0.007,-0.007 0.01,-0.01c0.24,-0.05 0.48,-0.099 0.72,-0.148zm4.811,65.192c-0.633,5.473 -0.404,2.925 -0.74,7.64l8.38,0l-7.64,-7.64zm-12.052,-12.052c-0.42,0.528 -0.119,0.168 -0.967,1.021c-6.115,5.146 -14.249,6.062 -21.939,6.524l-4.219,0.146l0,6.152c3.589,1.189 4.468,2.474 5.729,5.849l29.062,0c0.436,-6.07 0.109,-2.447 1.177,-10.85l-8.843,-8.842z" fill="#ffffff" id="svg_3"/>
   <path d="m135.594,14.008c4.142,0 7.5,3.358 7.5,7.5c-0.1,2.484 -1.183,4.796 -3.307,6.219c-0.894,0.376 -1.788,0.752 -2.681,1.128c-0.004,0.001 -0.008,0.001 -0.012,0.002l0,61.352l7.135,0c1.59,0 2.44,1.872 1.393,3.069l-8.634,9.869c-0.483,0.38 -0.266,0.288 -0.586,0.398c-0.266,0.263 -0.05,0.082 -0.813,0.234c-0.24,-0.049 -0.48,-0.099 -0.72,-0.148c-0.003,-0.003 -0.006,-0.007 -0.009,-0.01l-0.015,0l-0.642,-0.474c-1.796,-2.053 -3.593,-4.105 -5.389,-6.158c-1.083,-1.237 -2.165,-2.474 -3.248,-3.711c-1.047,-1.196 -0.197,-3.069 1.393,-3.069l7.135,0l0,-61.352c-3.695,-1.075 -5.621,-3.591 -6,-7.349c0,-4.142 3.358,-7.5 7.5,-7.5z" fill="#ffffff" id="svg_4"/>
   <path d="m83.754,48.593c3.587,2.071 8.174,0.842 10.245,-2.745c1.155,-2.202 1.374,-4.745 0.246,-7.039c-0.586,-0.773 -1.172,-1.546 -1.758,-2.318c-0.003,-0.003 -0.007,-0.005 -0.01,-0.007l12.694,-21.987l6.18,3.568c1.376,0.795 3.049,-0.402 2.74,-1.961l-2.542,-12.864c-0.229,-0.571 -0.087,-0.383 -0.309,-0.638c-0.098,-0.361 -0.002,-0.096 -0.587,-0.609c-0.232,-0.077 -0.465,-0.155 -0.697,-0.232c-0.005,0.001 -0.009,0.003 -0.014,0.004l-0.012,-0.007l-0.793,0.089c-2.582,0.88 -5.165,1.759 -7.747,2.639c-1.556,0.53 -3.112,1.06 -4.668,1.589c-1.504,0.513 -1.705,2.56 -0.328,3.355l6.179,3.567l-12.694,21.987c-3.737,-0.917 -6.663,0.299 -8.87,3.364c-2.071,3.587 -0.842,8.174 2.745,10.245z" fill="#ffffff" id="svg_5"/>
  </g>
 </g>
</svg>